<?xml version="1.0" encoding="UTF-8"?>
<svg width="1080px" height="1080px" viewBox="0 0 1080 1080" version="1.1" xmlns="http://www.w3.org/2000/svg" xmlns:xlink="http://www.w3.org/1999/xlink">
    <title>Yuji Sasaki Signature</title>
    <style>
        path {
          fill: #000000;
        }
     
        @media (prefers-color-scheme: dark) {
          path {
            fill: #ffffff;
          }
        }
      </style>
    <g id="Apple-TV" stroke="none" stroke-width="1" fill="none" fill-rule="evenodd">
        <g id="signature" transform="translate(-761.000000, 151.000000)" fill="#000000" fill-rule="nonzero">
            <path d="M1669.6488,349.939857 C1648.21969,347.229493 1627.75973,344.537078 1607.26388,342.10493 C1600.21956,341.270281 1593.11241,340.965141 1586.02322,340.570253 C1570.57057,339.72663 1555.10894,339.170198 1539.66526,338.138106 C1527.89182,337.357305 1516.17221,335.562362 1504.38979,335.059778 C1487.18727,334.323851 1469.95783,334.368725 1452.73737,334.03666 C1419.90273,333.390481 1387.06809,332.349414 1354.23345,332.142995 C1326.53175,331.963501 1298.83004,332.789175 1271.11937,333.022518 C1267.36837,333.049442 1264.84677,334.018711 1263.11486,337.581673 C1254.90395,354.472088 1246.5046,371.263781 1238.21294,388.109322 C1237.69246,389.159364 1237.4771,390.361976 1237.18096,391.51074 C1235.99644,396.195541 1237.48607,397.954586 1242.05366,396.680176 C1246.14566,395.540387 1250.23765,394.140331 1254.02453,392.237692 C1284.04144,377.160169 1314.2468,362.567282 1346.78531,353.529743 C1359.04334,350.128326 1371.28341,346.655111 1383.6222,343.585758 C1392.39845,341.404902 1404.6834,348.853916 1406.36147,357.469643 C1406.83708,359.910766 1405.70639,363.330132 1404.11805,365.385342 C1400.21451,370.447082 1395.63794,374.997263 1391.31263,379.735913 C1377.26885,395.091651 1360.71244,407.521632 1344.32652,420.167007 C1341.69724,422.204267 1339.21154,424.429997 1336.66301,426.565979 C1336.95017,427.248058 1337.23733,427.939111 1337.52449,428.621189 C1345.39439,428.621189 1353.29122,429.06095 1361.12523,428.513492 C1371.48981,427.795515 1381.79158,426.171092 1392.14719,425.192848 C1399.88248,424.465896 1407.05244,426.512131 1414.0519,429.895599 C1420.48602,433.009825 1427.63803,434.741945 1433.80294,438.251059 C1437.68854,440.467814 1440.7665,444.542335 1443.36887,448.365564 C1444.6162,450.196406 1445.04694,454.190154 1443.88934,455.778679 C1439.58198,461.710966 1434.62852,467.679152 1426.53427,468.03814 C1415.27232,468.549699 1405.45513,473.117829 1395.87126,478.170594 C1368.33108,492.68271 1341.15882,507.823055 1312.10209,519.355565 C1299.97867,524.166012 1288.02575,529.227752 1275.07675,530.349591 C1266.92866,531.049619 1258.04474,531.175265 1250.45302,528.662345 C1238.82315,524.794242 1234.41708,514.213053 1238.87699,498.094463 C1242.96,483.304132 1252.32851,470.72158 1262.1816,458.919829 C1264.73909,455.859451 1268.15806,453.508076 1271.99878,450.115633 C1268.70545,448.383513 1266.77611,446.821912 1264.60448,446.328303 C1253.7284,443.860256 1244.47655,438.152337 1235.25163,432.282873 C1231.94932,430.18279 1228.69188,429.70713 1224.81525,432.085429 C1201.02607,446.696266 1178.84317,463.245642 1158.87676,482.891295 C1150.29794,491.336502 1140.59741,498.794491 1130.73535,505.749896 C1121.25916,512.436059 1106.66798,510.955231 1100.65563,503.344672 C1098.25966,500.311218 1097.25461,496.173874 1095.60345,492.539114 C1095.07401,491.372401 1094.49072,490.241587 1093.93435,489.092823 C1093.04596,489.801826 1091.9063,490.340309 1091.30507,491.246755 C1085.50808,499.844533 1076.89336,504.816525 1068.00046,509.366706 C1061.05484,512.920693 1053.75028,511.098826 1050.51976,504.152396 C1047.47769,497.618803 1045.35093,490.806994 1047.99816,483.016941 C1052.98752,468.325331 1057.16924,453.355505 1061.44968,438.430553 C1063.96231,429.680206 1075.64602,425.031303 1083.22877,430.236638 C1095.05606,438.358756 1096.59056,447.84503 1091.66401,457.690293 C1089.48341,462.034056 1088.93602,465.668815 1093.64719,468.720219 C1094.73301,469.420247 1095.43295,470.8921 1096.05214,472.130611 C1099.166,478.359063 1099.34547,478.287266 1104.74762,474.185821 C1124.08586,459.485236 1140.13078,441.742223 1153.77075,421.737582 C1154.68606,420.400349 1155.39498,418.919521 1156.81282,416.433525 C1151.98499,417.124578 1148.13529,417.492542 1144.35737,418.246418 C1130.00848,421.082428 1119.31187,409.011435 1124.07689,394.97498 C1125.71907,390.137608 1128.10607,385.533579 1130.46614,380.974423 C1135.4196,371.407377 1140.56151,361.939052 1145.6765,352.461752 C1147.552,348.988537 1149.66081,345.649943 1151.49144,342.158778 C1152.0837,341.027964 1152.14652,339.627908 1152.44265,338.344524 C1150.94404,338.541968 1149.06855,338.218878 1148.01863,339.008653 C1140.06796,344.976839 1132.02756,350.873227 1124.50763,357.352972 C1115.48012,365.13405 1106.79361,373.33694 1098.24171,381.638552 C1091.92425,387.768283 1085.76832,394.113407 1080.12388,400.844444 C1077.80867,403.599682 1076.93823,407.61138 1075.60115,411.120493 C1074.94608,412.861588 1074.99992,414.880899 1074.2551,416.568146 C1073.15134,419.036193 1071.62582,421.31577 1070.2708,423.676121 C1068.44914,421.728607 1066.63646,419.790069 1063.90847,416.873286 C1060.03184,422.374787 1056.01164,428.028858 1052.05426,433.718828 C1039.20397,452.206742 1026.71263,470.963898 1013.30597,489.038975 C1010.16519,493.275041 1004.29641,496.272596 999.082711,498.004716 C989.103996,501.325361 979.645753,489.667205 982.463483,478.053923 C983.001903,475.846143 984.285137,473.817857 985.281214,471.735723 C990.180835,461.450699 995.107377,451.17465 1000.02495,440.8986 C999.585236,440.494738 999.145527,440.09985 998.696843,439.695988 C993.465197,443.384596 987.757946,446.561646 983.082666,450.860535 C966.840333,465.794461 950.696709,480.863009 935.02869,496.389267 C923.712899,507.598687 910.66519,515.792603 896.127852,521.868485 C889.711682,524.551925 881.913567,521.07871 878.880468,514.491269 C875.955054,508.13717 876.152474,502.052313 879.517599,495.868734 C891.452573,473.925554 905.837358,453.651671 921.056694,433.916271 C930.021385,422.294014 938.106657,409.926856 947.744374,398.905905 C953.658019,392.13897 961.240766,386.422076 969.029907,381.86292 C974.9615,378.389705 979.708568,381.189817 982.974982,387.38237 C985.819634,392.7672 988.825812,398.026383 986.582396,404.613825 C985.07482,409.056309 982.248116,411.596153 978.057414,413.444945 C973.866712,415.293736 969.083749,417.097654 966.212176,420.373425 C957.489774,430.31741 949.521159,440.925524 941.399992,451.381068 C940.430837,452.637528 940.350074,454.585042 939.865496,456.209465 C941.220519,455.518412 942.755016,455.033777 943.912619,454.091432 C955.76683,444.425663 967.199279,434.194487 979.484227,425.112075 C990.144941,417.24125 1001.49663,410.196098 1013.03676,403.671479 C1020.74514,399.318742 1022.5309,400.261087 1028.57017,406.354919 C1029.0727,406.866478 1029.56625,407.387012 1030.06878,407.907545 C1035.59655,413.579566 1035.22863,413.238526 1040.63078,407.458809 C1045.95216,401.76884 1051.7312,396.348111 1058.02174,391.788956 C1066.0083,386.000264 1069.80416,378.802542 1069.82211,369.002153 C1069.84006,360.709515 1070.60282,352.407903 1071.23098,344.115266 C1071.51813,340.327936 1070.05543,338.92788 1066.33136,339.206097 C1053.59773,340.157417 1040.85512,341.00104 1028.11252,341.853638 C1026.44342,341.970309 1024.76534,341.889537 1023.09624,341.970309 C1006.01935,342.787008 988.94247,343.487036 971.892506,344.599901 C969.326038,344.77042 966.014756,346.251248 964.534101,348.234661 C956.888538,358.447887 949.727554,369.029077 942.414017,379.493595 C942.019175,380.059002 942.010202,381.055196 941.51665,381.360336 C929.940622,388.495235 927.733101,402.082955 920.383669,412.152586 C908.753799,428.091681 897.680296,444.470537 887.010609,461.073761 C877.821576,475.388432 867.708255,489.317191 865.105893,507.015331 C864.639262,510.19238 859.990903,513.593797 856.500148,515.092575 C854.929756,515.774653 850.694187,512.606578 848.98919,510.237253 C843.389623,502.46515 845.372803,493.61608 848.172587,485.745254 C851.591553,476.151283 856.123254,466.763731 861.462585,458.076206 C872.61685,439.929331 884.659509,422.329913 896.226563,404.43433 C898.263585,401.29318 899.833976,397.82894 901.440262,394.436497 C901.870998,393.521076 901.673577,392.318464 901.763314,391.241498 C900.444185,391.447917 898.855847,391.250473 897.85977,391.932551 C893.749831,394.732663 889.82834,397.802015 885.817111,400.745722 C867.618519,414.127023 849.473768,427.589097 831.185439,440.844752 C814.548264,452.88882 797.955957,465.022636 780.888046,476.438474 C775.055164,480.342476 774.983375,486.328611 772.784827,491.489072 C770.308095,497.286739 769.096651,503.622888 767.400628,509.743644 C766.171236,514.159204 764.520081,518.143978 765.803316,523.313414 C767.795469,531.327835 761.702351,539.117889 752.450502,542.635977 C746.034332,545.0771 739.160504,542.420584 734.00962,535.806218 C727.799844,527.827696 721.509305,519.894048 715.102108,512.07707 C704.854183,499.575291 707.187336,480.530945 721.464437,472.722942 C730.124023,467.984292 738.837452,463.281541 747.147066,457.959535 C750.260928,455.967148 753.545289,452.637528 754.586234,449.25406 C761.827982,425.605685 768.423626,401.759865 775.414111,378.021742 C776.939634,372.825382 779.371497,367.898263 781.004704,362.719852 C781.381598,361.526215 780.502179,359.596651 779.595839,358.501735 C779.272787,358.106848 776.975528,358.869699 775.92561,359.605625 C763.200953,368.61624 750.431427,377.573006 737.886244,386.834913 C721.338805,399.049501 704.952893,411.488457 688.54006,423.873564 C671.552912,436.698433 654.027344,448.895072 637.793984,462.617412 C620.411995,477.309022 603.613294,492.718608 589.336193,510.766762 C580.595843,521.814637 570.30305,531.704773 560.11794,541.514138 C556.340027,545.148898 551.10838,547.545147 546.163891,549.627281 C540.869429,551.861985 533.950733,548.361846 532.138052,542.85137 C529.957452,536.219055 529.517742,529.622639 534.228916,523.555732 C543.61537,511.484739 553.315902,499.62914 562.065225,487.109411 C572.878492,471.637001 582.884128,455.608159 593.114106,439.740862 C594.02942,438.313882 593.984552,436.276622 594.388367,434.517577 C592.647476,434.777844 590.789927,434.759895 589.165694,435.352226 C564.263773,444.551309 542.735951,458.973678 523.756649,477.434668 C516.586691,484.408022 509.452627,491.542921 501.466065,497.484183 C496.324155,501.316386 489.87209,503.847256 483.626419,505.597325 C478.68193,506.979432 473.827177,505.112691 471.027394,499.844533 C467.267428,492.772457 467.904558,486.113218 472.777258,480.001436 C480.889452,469.842058 489.477249,460.059618 497.418943,449.783569 C506.338766,438.224135 514.774011,426.287763 523.406676,414.503961 C523.550255,414.315492 523.648965,414.091124 523.720755,413.857782 C525.03091,409.702488 526.332091,405.53822 527.633273,401.373952 C523.972017,402.558615 520.140262,403.375314 516.676428,404.981788 C505.270899,410.267895 493.614109,415.18604 482.81879,421.558088 C476.052646,425.551836 470.587684,431.798238 464.674039,437.174093 C451.985277,448.688653 438.120964,459.20702 427.029514,472.103687 C408.301475,493.885322 386.69289,512.633503 366.744433,533.104829 C355.760667,544.386047 344.660243,555.550593 333.703398,566.84976 C327.996147,572.737174 320.521084,575.250094 313.0191,577.206582 C305.69659,579.118196 299.199656,574.702636 295.664032,566.786937 C292.72067,560.181546 294.488482,551.413249 299.989339,547.26693 C311.143604,538.848647 322.872185,531.130392 333.523925,522.128752 C340.316989,516.384934 346.46395,509.429529 351.390492,502.007439 C361.647391,486.570928 371.150502,470.604909 380.37543,454.522219 C382.690635,450.483596 382.923951,445.188514 383.875159,440.42294 C384.467421,437.43436 382.861135,436.626635 379.899826,436.088153 C370.405688,434.373982 362.742178,439.337 354.683827,442.540973 C338.208178,449.083541 322.324791,456.738973 307.733612,467.08682 C303.390358,470.174123 297.386976,471.717774 291.98483,472.220358 C288.835073,472.516523 284.805898,469.967704 282.149693,467.598379 C274.925892,461.172483 269.568614,445.709048 281.333089,437.317689 C284.357214,435.163757 288.000522,433.62908 291.589988,432.561089 C302.699386,429.276343 313.961335,426.494181 325.08868,423.263284 C337.122365,419.772119 349.120155,416.13736 361.046155,412.314131 C373.663128,408.266534 386.468548,406.390818 399.103469,411.093569 C409.432157,414.934748 416.987983,425.964673 414.520225,438.071565 C413.784385,441.688375 413.317754,445.368009 412.420388,450.878484 C419.303189,446.220607 425.432202,442.855088 430.645901,438.421579 C451.707093,420.543945 473.881019,404.227912 497.230496,389.473479 C498.477835,388.683704 499.339307,387.292623 500.380252,386.179759 C498.738071,385.479731 497.015128,384.025827 495.471657,384.196346 C484.63147,385.389984 473.827177,386.897736 463.022885,388.342665 C450.109781,390.074785 437.214624,391.977425 424.283573,393.601848 C401.616095,396.446833 378.921696,399.130273 356.245245,401.90346 C339.742675,403.922771 323.231131,405.933108 306.737535,408.06909 C289.319651,410.321744 271.506926,411.183316 254.681304,415.697598 C246.649874,417.85153 237.33521,422.626079 233.512428,433.216243 C219.9263,470.802353 210.871872,509.617998 201.036735,548.227225 C194.521854,573.79619 189.074839,599.634396 182.308696,625.131564 C172.518427,662.017645 161.714135,698.64346 151.86105,735.511592 C147.069113,753.452049 143.56041,771.733544 139.288946,789.808622 C136.534031,801.457803 132.953538,812.927489 130.602438,824.648468 C126.546341,844.922351 123.270954,865.339829 119.475093,885.66756 C117.106046,898.366783 114.440867,911.012157 111.80261,923.657532 C111.425716,925.461449 110.761665,927.471786 109.541246,928.719271 C108.895142,929.374425 105.538992,928.719271 105.494123,928.405156 C104.973651,924.303711 104.453178,920.130468 104.67752,916.020048 C105.090308,908.481287 105.763333,900.942526 106.768384,893.457613 C108.419538,881.09943 110.402718,868.795095 112.296161,856.47281 C113.14866,850.899511 114.198578,845.353137 114.997235,839.770864 C116.092022,832.088507 116.836836,824.352302 118.075202,816.69687 C120.327592,802.82196 122.52614,788.9291 125.307976,775.152911 C129.157678,756.072666 133.384274,737.064218 137.709581,718.082694 C142.995069,694.874079 148.325426,671.665465 154.041651,648.564546 C159.59635,626.145707 166.048415,603.951235 171.414667,581.487521 C177.498811,556.026253 182.694563,530.367541 188.482577,504.834475 C191.811807,490.142865 195.58972,475.558952 199.089449,460.903241 C199.448396,459.395489 199.268923,457.762091 199.340712,456.191516 C197.976715,456.864619 196.442218,457.32233 195.257694,458.228776 C175.416921,473.440919 155.647937,488.742809 135.807164,503.954953 C120.37246,515.792603 104.713415,527.352036 89.4492104,539.405079 C78.6808124,547.904135 68.3790449,557.004497 57.9157515,565.889465 C49.8574004,572.728199 41.8439175,579.63873 33.848382,586.549261 C29.4692335,590.336591 25.6195312,595.039342 20.6929891,597.839453 C13.7383987,601.779353 8.39009436,599.401054 4.944207,592.239231 C3.42765761,589.080131 1.82137158,585.894107 0.80734743,582.564487 C-2.72827658,570.906332 6.14667811,564.256067 11.988534,556.690382 C18.6469935,548.056705 28.0424207,542.600078 37.384006,537.233198 C55.0262314,527.09177 65.99205,510.865484 76.3835541,494.145588 C78.743628,490.349284 81.1934386,486.526055 82.8356193,482.40666 C83.6970911,480.243754 83.3471182,477.255173 82.548462,474.98457 C82.306173,474.293517 78.635944,474.347365 76.7066061,474.805076 C64.5921583,477.659036 52.6571838,481.598936 40.3991574,483.483626 C24.6772963,485.897825 17.2650491,484.964454 11.7821397,467.463759 C10.8309312,464.42133 11.8449554,460.032694 13.4602151,457.097962 C15.9459203,452.58368 19.7417806,448.79635 22.9723,444.694905 C23.7081405,443.761534 24.8836906,442.855088 25.0182956,441.822996 C26.2835824,432.579039 33.686856,430.057144 40.4260784,425.641583 C50.162505,419.260561 59.0464333,411.120493 66.9701795,402.513741 C82.9522769,385.138692 97.3550092,366.444359 107.324751,344.797345 C112.323082,333.955888 117.052204,322.979811 121.610826,311.94091 C124.634951,304.599593 130.728069,299.690424 138.014685,299.510929 C144.915434,299.34041 152.47126,305.209874 155.297964,312.272975 C159.138693,321.866946 154.885176,329.96214 150.308606,337.527825 C138.113396,357.676062 123.055586,375.742164 107.593961,393.431329 C99.6881621,402.477842 91.3964957,411.183316 83.3740392,420.131108 C82.3779623,421.243973 81.9651737,422.886346 81.2742015,424.286401 C82.7997246,424.286401 84.397037,424.609491 85.8328234,424.250503 C102.084131,420.202906 118.173912,415.365534 134.586745,412.107712 C154.732623,408.113964 175.129764,405.4036 195.428194,402.163727 C199.170212,401.562421 202.966073,401.284205 206.663223,400.485455 C210.701372,399.614908 213.851128,397.999459 215.053599,393.117214 C218.786644,378.066616 222.91453,363.09679 227.185995,348.189787 C232.013826,331.35322 237.209578,314.62435 242.163041,297.823683 C243.48217,293.354274 244.487221,288.795119 245.671744,284.280837 C253.613438,254.053994 263.358838,224.446407 275.230997,195.511924 C282.724007,177.257352 289.256835,158.598918 296.821635,140.380245 C300.097023,132.49147 305.185091,125.383495 308.900188,117.656265 C315.289438,104.382661 322.611948,91.6295898 331.989428,80.3573469 C340.810541,69.7582077 350.071363,59.266765 360.498762,50.3189735 C375.377098,37.5659025 387.841519,42.4660973 398.475312,56.6640975 C408.750159,70.3864378 418.181481,84.7370081 428.061486,98.755514 C435.383996,109.13926 443.05648,119.289664 450.190544,129.799056 C462.421649,147.81131 470.01337,167.385165 469.708265,189.606561 C469.645449,194.488806 471.431209,199.371052 471.601708,204.280221 C471.745287,208.641933 471.215841,213.129291 470.309501,217.419205 C465.589353,239.730348 456.355451,259.609343 441.118168,277.083115 C423.834889,296.908262 402.28912,310.513931 380.294667,324.056777 C365.865014,332.941745 352.557068,343.657556 338.728651,353.529743 C326.542413,362.226242 314.302334,370.859919 302.151992,379.610267 C299.881655,381.243665 297.934369,383.316824 295.834532,385.183565 L296.256294,387.09518 C304.036462,386.547722 311.84355,386.215657 319.596797,385.398958 C332.985505,383.989928 346.347292,382.347555 359.709079,380.678258 C367.426431,379.717963 375.116862,378.461503 382.834214,377.44736 C393.109061,376.101153 403.383907,374.754946 413.685674,373.606182 C426.832094,372.134329 439.99646,370.859919 453.160827,369.495762 C463.740778,368.400847 474.329702,367.386704 484.90068,366.193067 C500.362305,364.451972 515.788035,362.396762 531.258633,360.826187 C547.465072,359.183814 563.71638,358.017101 579.940766,356.554222 C588.896484,355.746498 597.834254,354.786203 606.780998,353.852833 C612.892064,353.215628 618.985182,352.461752 625.087275,351.815572 C637.982431,350.451415 650.886561,349.060335 663.790692,347.812849 C670.386336,347.175644 677.026848,346.906403 683.622491,346.287147 C701.489058,344.61785 719.337678,342.840857 737.204245,341.144635 C738.622084,341.010015 740.102739,340.956166 741.493657,341.189509 C756.650177,343.783202 768.199284,336.675227 778.949735,327.368447 C779.847101,326.587646 780.609863,325.411959 781.650808,325.05297 C792.212812,321.400261 796.547092,312.981977 799.490454,303.029018 C802.613289,292.465777 811.829243,287.565583 822.543799,295.05947 C827.631867,298.622432 834.164696,299.510929 838.445134,304.949607 C843.470386,311.33063 844.044701,314.265362 838.113108,319.865584 C835.573561,322.261833 832.163568,323.733687 829.570179,326.085062 C827.479315,327.987702 826.034555,330.581395 824.302638,332.869947 C826.546054,333.516127 828.834339,334.826435 831.04186,334.700789 C850.667266,333.614849 870.274724,332.116071 889.909103,331.06603 C901.305657,330.455749 912.729133,330.509597 924.143635,330.132659 C932.695537,329.854443 941.435887,329.037744 947.941794,322.988785 C952.859363,318.420655 956.466776,312.461444 960.73824,307.184311 C967.253121,299.142966 973.435976,290.787506 980.462356,283.230795 C992.73833,270.046938 1005.5617,276.230517 1016.10575,285.268055 C1018.6812,287.475835 1020.89769,290.64391 1022.10016,293.820959 C1024.00258,298.8468 1020.70924,304.240604 1014.68791,307.615097 C1006.49496,312.210152 998.293029,316.787257 990.153914,321.481033 C988.834786,322.243884 987.829735,323.554193 986.681106,324.604234 C988.045103,325.133742 989.427048,326.17481 990.764124,326.111986 C1006.16293,325.465807 1021.56174,324.649108 1036.96055,323.904206 C1038.62965,323.823434 1040.29875,324.002928 1041.96786,323.94908 C1051.45302,323.652914 1060.95613,323.563167 1070.4054,322.791342 C1072.10142,322.647746 1074.54226,319.865584 1074.96402,317.936021 C1076.57928,310.585728 1077.50357,303.073891 1078.70604,295.624877 C1080.76101,282.826933 1082.76214,270.020013 1084.91582,257.231044 C1087.42844,242.350965 1089.86928,227.452937 1092.72291,212.635681 C1096.00727,195.583722 1099.37239,178.531762 1103.28491,161.605448 C1111.0561,128.004112 1118.54014,94.3040551 1127.5138,61.0168346 C1132.09935,44.0097484 1135.50934,26.0962158 1146.40337,11.4853787 C1151.0607,5.23897659 1156.07698,-1.63565562 1166.11851,0.347756545 C1174.67041,2.03500309 1180.10846,6.92622314 1183.3659,14.6175545 C1184.16455,16.5112195 1184.90039,18.9164433 1184.44274,20.7921589 C1182.37879,29.3181388 1180.06359,37.5120542 1173.38718,44.2520657 C1168.77472,48.9099431 1165.23012,55.2191682 1162.87902,61.4206968 C1154.91938,82.4484556 1148.95189,104.301888 1139.86157,124.800139 C1129.9008,147.281802 1125.45884,170.984026 1119.87722,194.51573 C1115.08528,214.72679 1110.27539,234.946825 1106.05777,255.28353 C1102.99775,270.055912 1101.03252,285.061637 1098.32247,299.905817 C1097.30845,305.47014 1095.34322,310.85497 1094.22151,316.401344 C1093.36901,320.583562 1093.92538,323.976004 1099.82107,323.284951 C1109.54853,322.154137 1119.3029,320.754081 1129.06625,320.673309 C1136.89128,320.610486 1140.6692,314.714098 1145.83803,311.061388 C1155.29627,304.375225 1164.10841,296.773641 1173.09105,289.441298 C1175.82802,287.206594 1178.52909,284.837269 1180.78148,282.13588 C1186.39899,275.404843 1193.97277,274.480447 1199.75181,281.121737 C1209.23697,292.017042 1209.57797,293.246578 1202.64133,304.464972 C1200.29023,308.261277 1197.984,312.093481 1195.58803,315.862861 C1193.71253,318.815543 1195.07653,319.784812 1197.92118,319.739938 C1213.40075,319.497621 1228.8893,319.282228 1244.36887,318.815543 C1245.77774,318.770669 1247.63528,317.289841 1248.42497,315.961583 C1259.9651,296.549273 1275.64209,280.439658 1290.59222,263.836434 C1297.62757,256.019457 1306.26921,249.566636 1314.57883,242.979195 C1325.3562,234.435266 1336.25023,225.981084 1347.59294,218.217955 C1358.11905,211.011258 1368.93231,204.019954 1380.284,198.240237 C1404.58469,185.873079 1428.8764,173.317452 1454.00266,162.826009 C1472.02178,155.305198 1491.26132,150.548598 1510.18678,145.388137 C1534.77462,138.684024 1560.00856,135.767242 1585.4489,136.844207 C1616.37215,138.163491 1645.6622,145.77405 1669.76546,166.263325 C1690.45873,183.862743 1703.97307,206.137987 1708.96243,233.385224 C1713.15313,256.261774 1713.55695,279.317819 1712.516,302.31104 C1711.64555,321.382311 1708.84577,340.301012 1703.9282,358.959446 C1698.75937,378.55125 1696.14804,398.816158 1691.0151,418.416937 C1684.9848,441.446058 1677.57255,464.11619 1670.51027,486.858119 C1665.56578,502.806189 1660.4508,518.709385 1654.97686,534.477961 C1648.55172,552.983824 1641.28305,571.193522 1635.01046,589.753234 C1621.24485,630.516393 1604.30257,669.942319 1586.96545,709.269523 C1582.29915,719.841738 1576.7265,729.678027 1571.21667,739.67586 C1564.69282,751.504535 1543.46113,752.554577 1535.87838,741.416955 C1532.98886,737.180889 1533.1773,731.374248 1536.33603,727.506146 C1539.6204,723.485473 1544.44823,722.659799 1549.8414,725.415037 C1551.93226,726.483028 1554.01416,727.748463 1555.76402,729.301089 C1559.96369,733.025596 1563.01474,731.158855 1565.10561,727.245879 C1571.5487,715.165911 1578.64687,703.319287 1583.78878,690.682887 C1591.64971,671.369299 1598.2274,651.517228 1605.08328,631.808752 C1615.12481,602.928117 1625.56119,574.164153 1634.6874,544.996327 C1646.16472,508.343588 1656.63699,471.36776 1667.23489,434.44578 C1671.56917,419.332358 1675.58937,404.093291 1678.8827,388.728578 C1682.57088,371.488149 1685.22708,354.032327 1688.42171,336.693176 C1692.41499,315.019238 1692.82778,293.013235 1691.78683,271.24955 C1690.74589,249.405092 1688.50247,227.255493 1675.68808,208.022678 C1659.23038,183.32426 1635.90782,170.36477 1607.09338,165.195334 C1592.93294,162.65549 1578.76352,162.269577 1564.64795,162.529844 C1551.76177,162.763186 1538.94737,165.850489 1526.04324,166.873606 C1506.14863,168.462131 1487.47443,174.816229 1468.93484,181.286999 C1452.34253,187.084666 1436.07328,194.022121 1420.17194,201.533958 C1403.70527,209.315037 1387.39114,217.652547 1371.85773,227.120872 C1358.34339,235.359661 1346.02255,245.536989 1333.15431,254.82582 C1329.90585,257.168221 1326.16383,258.981113 1323.36404,261.763275 C1313.14304,271.922653 1303.02074,282.189728 1293.28432,292.806817 C1287.56809,299.044244 1282.60566,305.972724 1277.4458,312.703761 C1276.38691,314.085867 1275.93822,315.952608 1275.21136,317.594981 C1276.88943,318.052692 1278.54956,318.896315 1280.23661,318.923239 C1308.09984,319.389924 1335.9541,319.829686 1363.81733,320.116876 C1385.22849,320.341244 1406.6576,319.874559 1428.05979,320.556637 C1452.53098,321.337438 1476.96627,323.033659 1501.4195,324.343968 C1511.85588,324.9004 1522.30122,325.349136 1532.71965,326.103012 C1551.34898,327.449219 1569.94241,329.558277 1588.58969,330.294204 C1603.88979,330.89551 1618.36431,334.745663 1632.93754,338.613765 C1642.63807,341.180534 1652.39244,343.594733 1662.05708,346.278173 C1664.471,346.951276 1666.66057,348.441079 1669.67572,349.903958 L1669.6488,349.939857 Z M239.201732,395.531412 C243.724459,393.880065 247.026768,393.431329 249.359921,391.699209 C259.015584,384.528411 268.348196,376.926827 277.869255,369.576535 C285.335344,363.805792 292.837328,358.079924 300.455969,352.506625 C308.272032,346.789731 316.294488,341.351054 324.137471,335.679033 C333.102163,329.208263 342.021986,322.665696 350.878993,316.05133 C365.793224,304.913708 381.057428,294.188923 395.388371,282.342298 C406.327269,273.295785 415.453486,262.472278 423.260575,250.275639 C430.906138,238.330292 436.855677,225.819539 439.233699,212.160021 C440.938695,202.350657 439.816987,191.993835 439.493935,181.89728 C439.350356,177.275302 438.596568,172.527677 437.232571,168.112117 C432.979054,154.300029 425.20786,142.220062 417.284114,130.319589 C411.926836,122.278244 405.591429,114.892053 400.144414,106.904556 C395.226845,99.6888845 391.036144,91.9975531 386.333943,84.6293115 C382.645767,78.8406199 380.47414,78.8316452 374.210522,82.0445934 C358.36303,90.1667111 347.81,103.754431 337.813337,117.611392 C321.032583,140.882829 310.901315,167.591583 300.177786,193.932374 C287.838996,224.248963 276.944967,255.023264 268.644327,286.748883 C260.774423,316.823156 251.845626,346.610237 243.500118,376.558863 C241.875884,382.383454 240.808018,388.360614 239.201732,395.540387 L239.201732,395.531412 Z M543.561528,432.776482 C546.729232,431.340528 548.353465,430.613576 549.968725,429.877649 C565.520086,422.751725 580.838132,415.042444 596.685625,408.679371 C611.429356,402.765033 615.970031,404.542027 625.078301,417.304073 C626.810218,419.727246 627.30377,423.335082 627.528111,426.458283 C627.994742,432.803407 628.021663,433.270092 633.262283,430.209714 C640.127137,426.198016 646.552281,421.432442 653.11203,416.927135 C673.706592,402.791957 694.354995,388.719603 714.823925,374.404932 C719.427415,371.183009 723.402748,367.054639 727.665239,363.339107 C717.785234,362.836523 708.775674,363.276284 699.775088,363.751944 C699.326405,363.778868 698.904643,364.173756 698.446986,364.245553 C688.154192,365.771255 677.744741,369.064976 667.595526,368.400847 C648.831592,367.180285 630.785552,372.008683 612.263907,372.565115 C593.894815,373.112573 575.606486,376.092178 557.264314,377.752501 C552.849271,378.147388 552.158299,379.35 553.755611,383.478369 C555.487529,387.965727 557.757866,393.126189 556.986131,397.496875 C555.577265,405.466423 552.257009,413.13083 549.421331,420.804212 C548.075282,424.438972 546.020312,427.813465 543.561528,432.776482 L543.561528,432.776482 Z M843.165282,352.452777 C843.120413,352.05789 843.066571,351.663002 843.021703,351.268115 C836.237612,352.219434 829.444548,353.978479 822.669431,353.92463 C814.620053,353.861807 812.08948,358.627381 810.169115,364.855834 C803.546551,386.332329 796.870144,407.790874 790.319368,429.285318 C789.951448,430.496905 790.480894,431.977733 790.597552,433.332915 C791.925654,433.009825 793.415283,432.973926 794.554938,432.309797 C805.825861,425.794154 817.365995,419.673398 828.179261,412.475676 C844.11649,401.867562 859.640931,390.640192 875.111529,379.35 C884.856929,372.23305 894.207488,364.577618 903.665731,357.074756 C905.7207,355.450332 907.70388,353.61949 909.229403,351.528381 C909.633218,350.971949 908.287169,348.019267 907.659012,347.992343 C901.458209,347.723102 895.194591,347.408987 889.029683,347.92952 C873.720611,349.212905 858.456407,350.918101 843.165282,352.461752 L843.165282,352.452777 Z M204.904384,421.531164 C202.203311,421.531164 200.588051,421.351669 199.035607,421.558088 C190.340126,422.751725 181.644645,423.972286 172.967111,425.309519 C155.692805,427.97501 138.463369,430.936666 121.162142,433.377788 C106.203043,435.486847 91.5939163,440.396016 76.1592125,438.99596 C73.440192,438.744668 70.039173,439.049809 67.9393353,440.521662 C65.0498152,442.531998 63.1025299,445.897517 60.7514297,448.679679 C63.9011861,449.442529 67.0419688,450.259229 70.2096726,450.914383 C70.8109081,451.040029 71.5288013,450.411799 72.2197736,450.331026 C78.2769974,449.604074 84.343195,448.374538 90.4093925,448.32069 C105.727439,448.186069 117.132967,464.304659 112.26924,478.718052 C111.407769,481.275846 110.55527,483.83364 109.595088,486.660675 C117.779071,485.520886 195.939693,432.184151 204.904384,421.531164 Z M1183.21334,425.569786 C1185.35805,425.130025 1186.57847,425.138999 1187.5566,424.64539 C1194.574,421.091403 1201.48373,417.322022 1208.53703,413.839832 C1217.36711,409.47812 1218.96442,408.257559 1217.07098,399.049501 C1213.84944,383.379647 1219.20671,369.603459 1224.82423,355.809321 C1227.11251,350.191149 1230.54045,345.030687 1233.53766,339.708681 C1235.91568,335.472615 1234.89268,333.42638 1229.9123,333.641773 C1220.20279,334.063585 1210.49328,334.736688 1200.77481,334.817461 C1189.45901,334.916183 1179.57004,336.926519 1175.67546,349.518045 C1175.41523,350.361668 1174.4371,350.962974 1173.97047,351.770699 C1169.2234,360.045387 1164.43146,368.302125 1159.85489,376.684509 C1159.05624,378.147388 1159.22674,380.14875 1158.94855,381.898819 C1160.78815,381.809072 1162.73544,382.087288 1164.43146,381.539831 C1167.79659,380.462865 1170.99121,378.856391 1174.31147,377.61788 C1181.87627,374.78187 1187.94246,377.285815 1192.82414,383.61299 C1198.75573,391.295347 1198.66599,398.744361 1194.03558,406.722883 C1190.56277,412.700043 1187.15278,418.713103 1183.21334,425.57876 L1183.21334,425.569786 Z M1315.18903,453.36448 C1308.15368,452.26059 1303.29893,455.491488 1299.06336,460.61605 C1295.44697,464.995712 1291.37293,468.98946 1287.82833,473.413995 C1281.47498,481.32072 1275.2652,489.35309 1269.20798,497.484183 C1267.21582,500.158648 1267.65553,502.483099 1271.64881,502.716442 C1273.07562,502.797214 1274.63704,503.120304 1275.93822,502.689518 C1291.04988,497.762399 1306.27819,493.113496 1321.15652,487.540198 C1330.39042,484.075957 1339.0859,479.166788 1348.0147,474.885848 C1355.69616,471.206215 1363.40454,467.58043 1370.99626,463.721302 C1372.23462,463.093072 1372.9256,461.360952 1373.86783,460.140391 C1372.66536,459.610882 1371.49878,458.713411 1370.25144,458.596739 C1351.90927,456.792822 1333.54915,455.087626 1315.19801,453.36448 L1315.18903,453.36448 Z M1345.31363,383.056558 C1344.76623,382.087288 1344.20987,381.109044 1343.66247,380.139775 C1311.73417,390.801737 1280.6494,403.456086 1251.04528,420.472147 C1254.35656,422.805573 1257.49734,424.349224 1260.8176,425.147974 C1264.92754,426.144168 1269.20798,426.404434 1273.37176,427.185235 C1285.01957,429.36609 1296.0841,429.68918 1304.45653,419.10799 C1305.73977,417.483567 1307.83063,416.514298 1309.41897,415.096293 C1321.39881,404.43433 1333.35173,393.745444 1345.31363,383.056558 L1345.31363,383.056558 Z M1087.5451,357.720935 C1088.34376,358.151721 1089.15139,358.573533 1089.95004,359.004319 C1094.70609,354.956723 1099.58776,351.043747 1104.15535,346.789731 C1106.29109,344.806319 1107.81661,342.158778 1109.62929,339.816377 C1106.50645,339.259945 1103.40157,338.353499 1100.26976,338.236827 C1096.29442,338.093232 1091.69093,338.263752 1090.25515,342.822907 C1088.74757,347.597456 1088.40657,352.739968 1087.5451,357.72991 L1087.5451,357.720935 Z" id="Shape"></path>
        </g>
    </g>
</svg>